<!-- Generated by IcoMoon.io -->
<svg version="1.1" xmlns="http://www.w3.org/2000/svg" width="736" height="1024" viewBox="0 0 736 1024">
<title></title>
<g id="icomoon-ignore">
</g>
<path fill="#52503b" d="M725.766 733.091v-1.662c0 0 0 0 0-1.662l-98.019-410.597v-229.403c0-49.87-39.206-89.766-88.216-89.766h-346.33c-49.009 0-88.216 39.896-88.216 89.766v229.403l-98.018 410.597c0 1.662-1.634 4.987-1.634 6.65v257.662c0 16.622 13.069 29.922 29.405 29.922s29.405-13.299 29.405-29.922v-46.546c6.535-18.286 104.553-63.17 303.856-63.17 199.304 0 297.322 46.546 303.856 63.17v46.546c0 16.622 13.069 29.922 29.405 29.922 16.338 0 29.406-13.299 29.406-29.922v-256c-3.267-1.662-4.901-3.325-4.901-4.987zM155.628 352.416h419.844l84.949 355.739h-589.742l84.949-355.739zM162.162 89.766c0-16.623 13.070-31.584 31.040-31.584h346.33c16.336 0 31.040 13.299 31.040 31.584v204.467h-408.41v-204.467zM366.366 826.182c-91.483 0-227.075 11.635-303.856 49.869v-109.714h606.078v109.714c-75.147-38.234-210.739-49.869-302.222-49.869z"></path>
</svg>
