<svg width="32" height="33" viewBox="0 0 32 33" fill="none" xmlns="http://www.w3.org/2000/svg">
<g clip-path="url(#clip0_1_378)">
<path d="M18.1286 32.625H14.1939C13.185 32.625 12.3778 31.7697 12.3778 30.7131V18.7382H9.14936C8.14046 18.7382 7.33334 17.8829 7.33334 16.8263V13.3546C7.33334 12.298 8.14046 11.4426 9.14936 11.4426H12.277V8.2728C12.277 3.69418 15.001 0.625 19.0366 0.625H22.0633C23.0722 0.625 23.8793 1.48035 23.8793 2.53695V6.61242C23.8793 7.66903 23.0722 8.52437 22.0633 8.52437H19.995C19.9446 8.52437 19.9446 8.52437 19.8942 8.52437C19.8942 8.57469 19.8942 8.625 19.8942 8.67531V11.3923H22.7695C23.3749 11.4426 23.8793 11.6942 24.2324 12.0967C24.5855 12.5495 24.7369 13.1533 24.636 13.7068L24.0307 17.1281C23.9298 18.0338 23.1731 18.6879 22.2146 18.6879H19.8942V30.7131C19.8942 31.7193 19.087 32.625 18.1286 32.625ZM13.2354 16.9772C13.7399 16.9772 14.1434 17.3797 14.1434 17.8829V30.7131C14.1434 30.8137 14.1939 30.864 14.1939 30.864H18.1286C18.1286 30.864 18.179 30.8137 18.179 30.7131V17.7822C18.179 17.2791 18.5826 16.8766 19.087 16.8766H22.2651C22.2651 16.8766 22.3155 16.8766 22.3155 16.8263V16.7759L22.9209 13.4049C22.9209 13.3042 22.9209 13.2539 22.8704 13.2036C22.8704 13.2036 22.82 13.1533 22.7695 13.1533H19.0366C18.5321 13.1533 18.1286 12.7508 18.1286 12.2476V8.67531C18.1286 7.76965 18.2799 6.76336 19.995 6.76336H22.0633C22.0633 6.76336 22.1137 6.71305 22.1137 6.61242V2.58726C22.1137 2.48664 22.0633 2.43632 22.0633 2.43632H19.087C16.0603 2.43632 14.093 4.75079 14.093 8.32311V12.3986C14.093 12.9017 13.6894 13.3042 13.185 13.3042H9.14936C9.14936 13.3042 9.09892 13.3546 9.09892 13.4552V16.9269C9.09892 17.0275 9.14936 17.0778 9.14936 17.0778L13.2354 16.9772Z" fill="white"/>
</g>
<defs>
<clipPath id="clip0_1_378">
<rect width="32" height="32" fill="white" transform="translate(0 0.625)"/>
</clipPath>
</defs>
</svg>
