<svg width="36" height="37" viewBox="0 0 36 37" fill="none" xmlns="http://www.w3.org/2000/svg">
<path d="M18.0289 11.125C7.96083 11.125 0 15.3589 0 20.6815C0 21.1653 0.0585355 21.7097 0.234142 22.254C0.585355 23.3427 1.40485 24.1895 2.51703 24.5524C5.50234 25.5202 11.4144 26.125 17.9704 26.125C24.5264 26.125 30.4385 25.5202 33.4238 24.5524C34.536 24.1895 35.3555 23.3427 35.7067 22.3145L35.7652 22.1935C35.8823 21.6492 35.9997 21.1653 35.9997 20.6815C36.0579 15.2984 28.0971 11.125 18.0289 11.125ZM33.8921 21.5887V21.6492C33.775 22.0726 33.4238 22.4355 32.9555 22.5565C30.1458 23.4637 24.2923 24.0081 18.0289 24.0081C11.7656 24.0081 5.91209 23.4032 3.16092 22.5565C2.69264 22.375 2.34142 22.0726 2.22435 21.6492C2.10728 21.3468 2.10728 20.9839 2.10728 20.6815C2.10728 18.5645 4.15602 16.5685 7.37548 15.1774C7.96083 17.7782 9.77544 19.6532 11.9413 19.6532C12.5266 19.6532 12.9949 19.1694 12.9949 18.5645C12.9949 17.9597 12.5266 17.4758 11.9413 17.4758C10.712 17.4758 9.59983 16.2056 9.30715 14.3911C11.0632 13.8468 13.112 13.4234 15.2192 13.2419C15.5705 16.2056 17.3265 19.5927 19.9021 19.5927C20.4874 19.5927 20.9557 19.1089 20.9557 18.504C20.9557 17.8992 20.4874 17.4153 19.9021 17.4153C18.7899 17.4153 17.5607 15.2984 17.268 13.0605C17.5021 13.0605 17.7948 13.0605 18.0289 13.0605C19.785 13.0605 21.5411 13.1815 23.1215 13.4839C23.2386 16.8105 25.3459 19.5323 27.8629 19.5323C28.4483 19.5323 28.9166 19.0484 28.9166 18.4435C28.9166 17.8387 28.4483 17.3548 27.8629 17.3548C26.5166 17.3548 25.4044 15.7823 25.1703 13.8468C30.3214 15.1169 33.9506 17.6573 33.9506 20.5C34.0092 20.9839 33.9506 21.2863 33.8921 21.5887Z" fill="#52503B"/>
</svg>
