<svg width="36" height="37" viewBox="0 0 36 37" fill="none" xmlns="http://www.w3.org/2000/svg">
<path d="M31.4706 26.9456C34 26.9456 36 28.975 36 31.4103C36 33.8456 33.9412 35.875 31.4706 35.875C29 35.875 26.9412 33.8456 26.9412 31.4103C26.9412 28.975 29 26.9456 31.4706 26.9456ZM33.1176 1.375C33.7059 1.375 34.1765 1.83887 34.1765 2.4187C34.1765 2.99853 33.7059 3.46239 33.1176 3.46239C16 3.46239 2.05882 17.1464 2.11765 34.0775C2.11765 34.6574 1.64706 35.1212 1.05882 35.1212C0.470588 35.1212 0 34.6574 0 34.0775C0 16.0447 14.8235 1.43298 33.1176 1.375ZM33.0588 10.8263C33.6471 10.8263 34.1176 11.2901 34.1176 11.87C34.1176 12.3918 33.7059 12.8557 33.1176 12.8557C21.2353 12.8557 11.5882 22.3649 11.6471 34.0195C11.6471 34.5994 11.1765 35.0632 10.5882 35.0632C10 35.0632 9.52941 34.5994 9.52941 34.0195C9.52941 21.2632 20.0588 10.8263 33.0588 10.8263ZM33.0588 20.1616C33.6471 20.1616 34.1176 20.6254 34.1176 21.2053C34.1176 21.7851 33.7059 22.191 33.1176 22.191C26.5294 22.191 21.1176 27.4674 21.1176 34.0195C21.1176 34.5994 20.6471 35.0632 20.0588 35.0632C19.4706 35.0632 19 34.5994 19 34.0195C19 26.3658 25.2941 20.1616 33.0588 20.1616ZM31.4706 29.033C30.1176 29.033 29 30.1347 29 31.4683C29 32.8019 30.1176 33.9036 31.4706 33.9036C32.8235 33.9036 33.9412 32.8019 33.9412 31.4683C33.9412 30.1347 32.8235 29.033 31.4706 29.033Z" fill="#52503B"/>
</svg>
