<svg width="36" height="37" viewBox="0 0 36 37" fill="none" xmlns="http://www.w3.org/2000/svg">
<g clip-path="url(#clip0_1_326)">
<path d="M26.6133 0.625C30.0703 0.625 32.9414 3.43476 33 7.00549V19.5909C33 20.6445 32.1797 21.464 31.125 21.464H29.8945V33.9323C29.8945 35.3957 28.6641 36.625 27.1992 36.625H25.5C24.0352 36.625 22.8047 35.3957 22.8047 33.9323V2.49817C22.8047 1.44451 23.625 0.625 24.6797 0.625H26.6133ZM9.32812 0.683537C9.91406 0.683537 10.3828 1.15183 10.3828 1.7372V10.6933H13.6641V1.79573C13.6641 1.21037 14.1328 0.742073 14.7188 0.742073C15.3047 0.742073 15.7148 1.21037 15.7734 1.7372V16.7226C15.7734 17.6006 15.1289 18.2445 14.25 18.2445H12.9023V33.8738C12.9023 35.3372 11.6719 36.5665 10.207 36.5665H8.56641C7.10156 36.5665 5.87109 35.3372 5.87109 33.8738V18.186H4.52344C3.64453 18.186 3 17.5421 3 16.664V1.7372C3 1.21037 3.41016 0.683537 3.99609 0.683537C4.58203 0.683537 5.05078 1.15183 5.05078 1.7372V10.6348H8.27344V1.7372C8.27344 1.15183 8.74219 0.683537 9.32812 0.683537ZM27.8438 21.464H24.8555V33.9323C24.8555 34.2835 25.1484 34.5762 25.5 34.5762H27.1992C27.5508 34.5762 27.8438 34.225 27.8438 33.8738V21.464ZM10.8516 18.2445H7.92188V33.9323C7.92188 34.2835 8.21484 34.5762 8.56641 34.5762H10.207C10.5586 34.5762 10.8516 34.2835 10.8516 33.9323V18.2445ZM26.5547 2.67378H24.7969V19.4152H30.8906V7.00549C30.8906 4.60549 28.957 2.67378 26.5547 2.67378ZM13.7227 12.6835H5.05078V16.1957H13.7227V12.6835Z" fill="#52503B"/>
</g>
<defs>
<clipPath id="clip0_1_326">
<rect width="36" height="36" fill="white" transform="translate(0 0.625)"/>
</clipPath>
</defs>
</svg>
